<svg width="53" height="52" viewBox="0 0 53 52" fill="none" xmlns="http://www.w3.org/2000/svg">
<rect x="1" y="0.5" width="51" height="51" rx="9.5" stroke="black"/>
<g clip-path="url(#clip0_1107_138)">
<path d="M46.5 26C46.5 14.9543 37.5457 6 26.5 6C15.4543 6 6.5 14.9543 6.5 26C6.5 35.9826 13.8137 44.2566 23.375 45.7569V31.7812H18.2969V26H23.375V21.5938C23.375 16.5812 26.3609 13.8125 30.9293 13.8125C33.1175 13.8125 35.4062 14.2031 35.4062 14.2031V19.125H32.8843C30.3998 19.125 29.625 20.6667 29.625 22.2483V26H35.1719L34.2852 31.7812H29.625V45.7569C39.1863 44.2566 46.5 35.9826 46.5 26Z" fill="black"/>
<path d="M34.2852 31.7812L35.1719 26H29.625V22.2483C29.625 20.6667 30.3998 19.125 32.8843 19.125H35.4062V14.2031C35.4062 14.2031 33.1175 13.8125 30.9293 13.8125C26.3609 13.8125 23.375 16.5812 23.375 21.5938V26H18.2969V31.7812H23.375V45.7569C25.4457 46.081 27.5543 46.081 29.625 45.7569V31.7812H34.2852Z" fill="white"/>
</g>
<defs>
<clipPath id="clip0_1107_138">
<rect width="40" height="40" fill="white" transform="translate(6.5 6)"/>
</clipPath>
</defs>
</svg>
