<svg width="53" height="52" viewBox="0 0 53 52" fill="none" xmlns="http://www.w3.org/2000/svg">
<rect x="1" y="0.5" width="51" height="51" rx="9.5" stroke="black"/>
<path d="M36.6408 13.5796C33.6008 13.6728 33.6016 18.0464 36.6408 18.1388C39.6808 18.0456 39.68 13.672 36.6408 13.5796ZM26.5 16.2188C21.112 16.2188 16.7444 20.598 16.7444 26C17.2584 38.9748 35.7432 38.9712 36.2552 26C36.2556 20.598 31.8876 16.2188 26.5 16.2188ZM26.5 32.3492C23.0028 32.3492 20.1676 29.5064 20.1676 26C20.5012 17.578 32.5004 17.58 32.8328 26C32.8324 29.5068 29.9972 32.3492 26.5 32.3492Z" fill="black"/>
<path d="M45.3832 18.1672C45.2424 11.5004 41.0008 7.25639 34.3324 7.11679C32.7312 6.96239 20.2696 6.95959 18.6672 7.11679C12.0004 7.25759 7.75636 11.4992 7.61676 18.1676C7.46236 19.7664 7.45916 32.232 7.61676 33.8328C7.74116 40.478 12.0212 44.7592 18.6672 44.8832C20.2684 45.0392 32.73 45.0392 34.3324 44.8832C36.3544 44.7908 37.7356 44.4696 38.944 44C43.1788 42.3084 45.248 38.5456 45.3832 33.8324C45.5376 32.2312 45.5404 19.7696 45.3832 18.1672ZM34.1764 41.4636C32.6008 41.614 20.4 41.6164 18.8232 41.4636C16.9712 41.3792 15.9652 41.0696 15.2956 40.8096C9.51596 38.1288 11.308 32.7076 11.0356 25.2664C11.0416 23.538 11.032 20.052 11.036 18.3236C11.2668 13.1708 13.6936 10.7852 18.8232 10.5364C20.4008 10.386 32.5984 10.3836 34.1764 10.5364C39.3308 10.7672 41.714 13.194 41.9636 18.3232C42.0656 19.5548 42.1396 26.278 41.9636 29.6804C42.1536 36.0708 41.8624 41.0888 34.1764 41.4636Z" fill="black"/>
</svg>
