<svg width="53" height="52" viewBox="0 0 53 52" fill="none" xmlns="http://www.w3.org/2000/svg">
<rect x="1" y="0.5" width="51" height="51" rx="9.5" stroke="black"/>
<path d="M38.5 24.0667V19.3333C36.2833 19.3333 34.5917 18.7417 33.5 17.5917C32.3796 16.2792 31.7519 14.6171 31.725 12.8917V12.55L27.25 12.4417V31.6666C27.0965 32.5054 26.6893 33.277 26.0835 33.877C25.4776 34.4771 24.7022 34.8768 23.862 35.0222C23.0217 35.1676 22.1571 35.0517 21.3848 34.6902C20.6125 34.3286 19.9697 33.7388 19.5433 33.0004C19.1168 32.262 18.9272 31.4105 18.9999 30.5609C19.0727 29.7113 19.4045 28.9044 19.9503 28.2493C20.4962 27.5942 21.2299 27.1223 22.0525 26.8974C22.875 26.6725 23.7467 26.7054 24.55 26.9917V22.4083C24.0817 22.3316 23.6079 22.2926 23.1333 22.2916C21.4258 22.2916 19.7567 22.798 18.3369 23.7466C16.9172 24.6953 15.8106 26.0436 15.1572 27.6212C14.5037 29.1987 14.3328 30.9346 14.6659 32.6093C14.999 34.284 15.8213 35.8223 17.0286 37.0297C18.236 38.2371 19.7744 39.0593 21.4491 39.3924C23.1238 39.7255 24.8596 39.5546 26.4372 38.9011C28.0147 38.2477 29.363 37.1411 30.3117 35.7214C31.2603 34.3017 31.7667 32.6325 31.7667 30.925C31.7657 30.5712 31.7435 30.2178 31.7 29.8666V22.2417C33.7349 23.5124 36.1023 24.1478 38.5 24.0667Z" fill="black"/>
</svg>
