<svg width="53" height="52" viewBox="0 0 53 52" fill="none" xmlns="http://www.w3.org/2000/svg">
<rect x="1" y="0.5" width="51" height="51" rx="9.5" stroke="black"/>
<path d="M45.0683 14.4488C43.7015 15.056 42.2331 15.4644 40.6919 15.6488C42.2659 14.706 43.4727 13.2136 44.0411 11.434C42.5699 12.3068 40.9391 12.9408 39.2019 13.2836C37.8123 11.8024 35.8327 10.8768 33.6415 10.8768C28.7983 10.812 25.0747 15.5436 26.2207 20.2308C19.8891 19.9136 14.2759 16.88 10.5167 12.2692C8.46508 15.6148 9.62988 20.3992 12.8751 22.4416C11.6267 22.4016 10.4511 22.0588 9.42428 21.4888C9.37668 25.2108 12.0171 28.3532 15.5359 29.0544C14.4547 29.356 13.2091 29.4032 12.0951 29.1856C13.0651 32.212 15.8787 34.416 19.2123 34.4772C16.1983 36.8856 11.9787 38.1412 7.93188 37.6324C24.2047 47.6472 42.1939 34.5264 41.2651 18.392C42.7543 17.3168 44.0471 15.9756 45.0683 14.4488Z" fill="black"/>
</svg>
