<svg width="53" height="52" viewBox="0 0 53 52" fill="none" xmlns="http://www.w3.org/2000/svg">
<rect x="1" y="0.5" width="51" height="51" rx="9.5" stroke="black"/>
<path d="M44.8332 22.1833C44.9156 19.7977 44.3939 17.43 43.3165 15.3C42.5856 14.426 41.5711 13.8362 40.4499 13.6333C35.8124 13.2125 31.1558 13.04 26.4999 13.1166C21.861 13.0366 17.2211 13.2035 12.5999 13.6166C11.6862 13.7828 10.8407 14.2114 10.1665 14.85C8.66655 16.2333 8.49988 18.6 8.33322 20.6C8.0914 24.1959 8.0914 27.804 8.33322 31.4C8.38143 32.5256 8.54904 33.643 8.83322 34.7333C9.03417 35.5751 9.44075 36.3539 10.0165 37C10.6953 37.6724 11.5605 38.1253 12.4999 38.3C16.0931 38.7435 19.7136 38.9273 23.3332 38.85C29.1665 38.9333 34.2832 38.85 40.3332 38.3833C41.2956 38.2194 42.1852 37.7659 42.8832 37.0833C43.3498 36.6165 43.6983 36.0451 43.8999 35.4166C44.4959 33.5877 44.7887 31.6735 44.7665 29.75C44.8332 28.8166 44.8332 23.1833 44.8332 22.1833ZM22.7332 30.75V20.4333L32.5999 25.6166C29.8332 27.15 26.1832 28.8833 22.7332 30.75Z" fill="black"/>
</svg>
